<svg width="572" height="572" xmlns="http://www.w3.org/2000/svg" xmlns:xlink="http://www.w3.org/1999/xlink">
 <defs>
  <clipPath id="c0_1">
   <path id="svg_1" d="m0,572.9l0,-572.9l572.9,0l0,572.9l-572.9,0z"/>
  </clipPath>
  <clipPath id="c1_1">
   <path id="svg_2" d="m66.5,275l0,-34.2l106.5,0l0,34.2l-106.5,0z"/>
  </clipPath>
  <clipPath id="c2_1">
   <path id="svg_3" d="m66.5,303.6l0,-34.1l106.5,0l0,34.1l-106.5,0z"/>
  </clipPath>
  <clipPath id="c3_1">
   <path id="svg_4" d="m66.5,330l0,-34.2l106.5,0l0,34.2l-106.5,0z"/>
  </clipPath>
  <style type="text/css">
   <![CDATA[

.g0_1{
fill: #FFFFFF;
}
.g1_1{
}
.g2_1{
fill: #219AB3;
}

.s1_1{
font-size: 46.20px;
font-family: Aileron-Heavy_a;
fill: TRANSPARENT;
}
text::-moz-selection {
	color: transparent;
	background: rgba(0, 106, 173, 0.4);
}
text::selection {
	color: transparent;
	background: rgba(0, 106, 173, 0.4);
}

]]>
  </style>
 </defs>
 <defs>
  <path transform="scale(0.0010000000474974513,-0.0010000000474974513) " id="f0_12" d="m538,188c0,0 49,0 69,1c0,0 50,4 84,39c0,0 33,35 33,91c0,0 0,61 -33,94c0,0 -34,33 -89,38c0,0 -24,3 -73,3l-159,0l0,-266l168,0zm-25,441c0,0 39,0 71,5c0,0 102,17 102,116c0,0 0,98 -104,113c0,0 -32,5 -73,5l-139,0l0,-239l143,0zm-383,-629l0,1054l402,0c0,0 82,0 136,-6c0,0 126,-15 197,-87c0,0 72,-72 72,-179c0,0 0,-156 -161,-212c0,0 199,-52 199,-254c0,0 0,-136 -87,-215c0,0 -87,-80 -208,-95c0,0 -52,-6 -150,-6l-400,0z"/>
  <path transform="scale(0.0010000000474974513,-0.0010000000474974513) " id="f0_1c" d="m130,0l0,1054l240,0l0,-852l542,0l0,-202l-782,0z"/>
  <path transform="scale(0.0010000000474974513,-0.0010000000474974513) " id="f0_11" d="m652,486l-111,360l-113,-360l224,0zm-637,-486l381,1054l296,0l376,-1054l-260,0l-96,298l-344,0l-98,-298l-255,0z"/>
  <path transform="scale(0.0010000000474974513,-0.0010000000474974513) " id="f0_1b" d="m130,0l0,1054l240,0l0,-489l431,489l285,0l-461,-501l443,-553l-304,0l-313,419l-81,-91l0,-328l-240,0z"/>
  <path transform="scale(0.0010000000474974513,-0.0010000000474974513) " id="f0_15" d="m130,0l0,1054l767,0l0,-186l-527,0l0,-246l492,0l0,-187l-492,0l0,-247l542,0l0,-188l-782,0z"/>
  <path transform="scale(0.0010000000474974513,-0.0010000000474974513) " id="f0_1e" d="m130,0l0,1054l307,0l425,-776c0,0 -8,138 -8,307l0,469l238,0l0,-1054l-319,0l-412,755c0,0 9,-135 9,-297l0,-458l-240,0z"/>
  <path transform="scale(0.0010000000474974513,-0.0010000000474974513) " id="f0_1f" d="m610,156c0,0 131,0 206,98c0,0 75,97 75,273c0,0 0,176 -75,274c0,0 -75,97 -206,97c0,0 -133,0 -208,-97c0,0 -75,-97 -75,-274c0,0 0,-176 75,-273c0,0 75,-98 208,-98zm0,-176c0,0 -245,0 -388,148c0,0 -143,149 -143,399c0,0 0,252 143,400c0,0 143,149 388,149c0,0 243,0 385,-149c0,0 143,-148 143,-400c0,0 0,-250 -143,-399c0,0 -142,-148 -385,-148z"/>
 </defs>
 <!-- Any embedded fonts defined here -->
 <style type="text/css">
  <![CDATA[

@font-face {
	font-family: Aileron-Heavy_a;
	src: url("fonts/Aileron-Heavy_a.woff") format("woff");
}

]]>
 </style>
 <g>
  <title>background</title>
  <rect fill="none" id="canvas_background" height="402" width="582" y="-1" x="-1"/>
 </g>
 <g>
  <title>Layer 1</title>
  <path id="svg_9" class="g0_1" d="m179.7,339l7.8,0l0,7.7l-7.8,0l0,-7.7z"/>
  <path id="svg_10" class="g0_1" d="m53.2,232.4l7.8,0l0,107.1l-7.8,0l0,-107.1z"/>
  <path id="svg_11" class="g0_1" d="m53.2,339l7.8,0l0,7.7l-7.8,0l0,-7.7z"/>
  <path id="svg_12" class="g0_1" d="m179.7,232.4l7.8,0l0,107.1l-7.8,0l0,-107.1z"/>
  <path id="svg_13" class="g0_1" d="m60.6,339l119.5,0l0,7.7l-119.5,0l0,-7.7z"/>
  <path id="svg_14" class="g0_1" d="m179.7,225l7.8,0l0,7.8l-7.8,0l0,-7.8z"/>
  <path id="svg_15" class="g0_1" d="m53.2,225l7.8,0l0,7.8l-7.8,0l0,-7.8z"/>
  <path id="svg_16" class="g0_1" d="m60.6,225l119.5,0l0,7.8l-119.5,0l0,-7.8z"/>
  <g id="svg_17" clip-path="url(#c0_1)">
   <g id="svg_18" fill="#FFFFFF">
    <use id="svg_19" transform="matrix(30.2,0,0,30.2,202.8,279) " xlink:href="#f0_12"/>
    <use id="svg_20" transform="matrix(30.2,0,0,30.2,234.6,279) " xlink:href="#f0_1c"/>
    <use id="svg_21" transform="matrix(30.2,0,0,30.2,263.9,279) " xlink:href="#f0_11"/>
    <use id="svg_22" transform="matrix(30.2,0,0,30.2,296.7,279) " xlink:href="#f0_1b"/>
    <use id="svg_23" transform="matrix(30.2,0,0,30.2,330.4,279) " xlink:href="#f0_15"/>
    <use id="svg_24" transform="matrix(30.2,0,0,30.2,202.8,328.2) " xlink:href="#f0_1e"/>
   </g>
  </g>
  <text id="svg_25" class="s1_1" y="278" x="202">BLAKE</text>
  <g id="svg_26" clip-path="url(#c0_1)">
   <g id="svg_27" fill="#FFFFFF">
    <use id="svg_28" transform="matrix(30.2,0,0,30.2,239.5,328.2) " xlink:href="#f0_1f"/>
    <use id="svg_29" transform="matrix(30.2,0,0,30.2,276.3,328.2) " xlink:href="#f0_1c"/>
    <use id="svg_30" transform="matrix(30.2,0,0,30.2,305.6,328.2) " xlink:href="#f0_1c"/>
   </g>
  </g>
  <text id="svg_31" class="s1_1" y="328" x="202">NOLL</text>
  <g id="svg_32" clip-path="url(#c1_1)">
   <path id="svg_33" class="g2_1" d="m152.8,263.6c-0.3,-1.1 -1.3,-1.9 -2.5,-1.9c-0.3,0 -0.6,0.1 -0.9,0.2l-11.8,-16.8c0.4,-0.5 0.6,-1.1 0.6,-1.7c0,-1.4 -1.1,-2.6 -2.6,-2.6c-1.4,0 -2.5,1.2 -2.5,2.6c0,0.5 0.1,1 0.4,1.4l-14,14.7c-0.4,-0.2 -0.8,-0.4 -1.3,-0.4c-1.4,0 -2.5,1.2 -2.5,2.6c0,0.3 0,0.6 0.1,0.8l-11.4,7.6c-0.5,-0.5 -1.1,-0.7 -1.8,-0.7c-0.4,0 -0.8,0.1 -1.2,0.3l-15.4,-16.6c0.3,-0.4 0.4,-0.9 0.4,-1.4c0,-1.4 -1.1,-2.6 -2.5,-2.6c-1.4,0 -2.6,1.2 -2.6,2.6c0,0.5 0.1,0.9 0.4,1.3l-9.1,9.1c-0.4,-0.3 -0.8,-0.4 -1.3,-0.4c-1.2,0 -2.2,0.8 -2.5,1.9l-2.3,0l0,1.3l2.3,0c0.3,1.1 1.3,1.9 2.5,1.9c1.4,0 2.6,-1.1 2.6,-2.5c0,-0.5 -0.2,-1 -0.4,-1.4l9.1,-9c0.3,0.2 0.8,0.4 1.3,0.4c0.4,0 0.8,-0.2 1.2,-0.4l15.4,16.7c-0.3,0.4 -0.4,0.8 -0.4,1.3c0,1.5 1.1,2.6 2.5,2.6c1.4,0 2.6,-1.1 2.6,-2.6c0,-0.2 -0.1,-0.5 -0.2,-0.8l11.5,-7.5c0.5,0.4 1.1,0.7 1.7,0.7c1.5,0 2.6,-1.2 2.6,-2.6c0,-0.5 -0.2,-1 -0.4,-1.4l14,-14.7c0.4,0.2 0.8,0.3 1.2,0.3c0.4,0 0.7,0 1,-0.1l11.8,16.8c-0.4,0.4 -0.7,1 -0.7,1.7c0,1.4 1.2,2.5 2.6,2.5c1.2,0 2.2,-0.8 2.5,-1.9l22.1,0l0,-1.3l-22.1,0z"/>
  </g>
  <g id="svg_34" clip-path="url(#c2_1)">
   <path id="svg_35" class="g0_1" d="m152.8,292.3c-0.3,-1.1 -1.3,-2 -2.5,-2c-0.3,0 -0.6,0.1 -0.9,0.2l-11.8,-16.8c0.4,-0.4 0.6,-1 0.6,-1.7c0,-1.4 -1.1,-2.5 -2.6,-2.5c-1.4,0 -2.5,1.1 -2.5,2.5c0,0.5 0.1,1 0.4,1.4l-14,14.7c-0.4,-0.2 -0.8,-0.3 -1.3,-0.3c-1.4,0 -2.5,1.1 -2.5,2.5c0,0.3 0,0.6 0.1,0.9l-11.4,7.5c-0.5,-0.4 -1.1,-0.7 -1.8,-0.7c-0.4,0 -0.8,0.2 -1.2,0.4l-15.4,-16.7c0.3,-0.4 0.4,-0.8 0.4,-1.4c0,-1.4 -1.1,-2.5 -2.5,-2.5c-1.4,0 -2.6,1.1 -2.6,2.5c0,0.5 0.1,1 0.4,1.4l-9.1,9c-0.4,-0.2 -0.8,-0.4 -1.3,-0.4c-1.2,0 -2.2,0.9 -2.5,2l-2.3,0l0,1.2l2.3,0c0.3,1.1 1.3,2 2.5,2c1.4,0 2.6,-1.2 2.6,-2.6c0,-0.5 -0.2,-0.9 -0.4,-1.3l9.1,-9.1c0.3,0.3 0.8,0.4 1.3,0.4c0.4,0 0.8,-0.1 1.2,-0.3l15.4,16.6c-0.3,0.4 -0.4,0.9 -0.4,1.4c0,1.4 1.1,2.5 2.5,2.5c1.4,0 2.6,-1.1 2.6,-2.5c0,-0.3 -0.1,-0.6 -0.2,-0.8l11.5,-7.6c0.5,0.4 1.1,0.7 1.7,0.7c1.5,0 2.6,-1.1 2.6,-2.6c0,-0.5 -0.2,-0.9 -0.4,-1.3l14,-14.7c0.4,0.2 0.8,0.3 1.2,0.3c0.4,0 0.7,-0.1 1,-0.2l11.8,16.8c-0.4,0.5 -0.7,1.1 -0.7,1.7c0,1.4 1.2,2.6 2.6,2.6c1.2,0 2.2,-0.9 2.5,-2l22.1,0l0,-1.2l-22.1,0z"/>
  </g>
  <g id="svg_36" clip-path="url(#c3_1)">
   <path id="svg_37" class="g2_1" d="m152.8,318.6c-0.3,-1.1 -1.3,-1.9 -2.5,-1.9c-0.3,0 -0.6,0.1 -0.9,0.2l-11.8,-16.8c0.4,-0.5 0.6,-1.1 0.6,-1.7c0,-1.4 -1.1,-2.6 -2.6,-2.6c-1.4,0 -2.5,1.2 -2.5,2.6c0,0.5 0.1,1 0.4,1.4l-14,14.7c-0.4,-0.2 -0.8,-0.4 -1.3,-0.4c-1.4,0 -2.5,1.2 -2.5,2.6c0,0.3 0,0.6 0.1,0.8l-11.4,7.6c-0.5,-0.5 -1.1,-0.7 -1.8,-0.7c-0.4,0 -0.8,0.1 -1.2,0.3l-15.4,-16.6c0.3,-0.4 0.4,-0.9 0.4,-1.4c0,-1.4 -1.1,-2.6 -2.5,-2.6c-1.4,0 -2.6,1.2 -2.6,2.6c0,0.5 0.1,0.9 0.4,1.3l-9.1,9.1c-0.4,-0.3 -0.8,-0.4 -1.3,-0.4c-1.2,0 -2.2,0.8 -2.5,1.9l-2.3,0l0,1.3l2.3,0c0.3,1.1 1.3,1.9 2.5,1.9c1.4,0 2.6,-1.1 2.6,-2.5c0,-0.5 -0.2,-1 -0.4,-1.4l9.1,-9c0.3,0.2 0.8,0.4 1.3,0.4c0.4,0 0.8,-0.2 1.2,-0.4l15.4,16.7c-0.3,0.4 -0.4,0.8 -0.4,1.3c0,1.5 1.1,2.6 2.5,2.6c1.4,0 2.6,-1.1 2.6,-2.6c0,-0.2 -0.1,-0.5 -0.2,-0.8l11.5,-7.5c0.5,0.4 1.1,0.7 1.7,0.7c1.5,0 2.6,-1.2 2.6,-2.6c0,-0.5 -0.2,-1 -0.4,-1.4l14,-14.7c0.4,0.2 0.8,0.3 1.2,0.3c0.4,0 0.7,0 1,-0.1l11.8,16.8c-0.4,0.4 -0.7,1 -0.7,1.7c0,1.4 1.2,2.5 2.6,2.5c1.2,0 2.2,-0.8 2.5,-1.9l22.1,0l0,-1.3l-22.1,0z"/>
  </g>
 </g>
</svg>